M48
; DRILL file {KiCad 8.0.6} date 2025-04-05T02:38:32-0400
; FORMAT={-:-/ absolute / inch / decimal}
; #@! TF.CreationDate,2025-04-05T02:38:32-04:00
; #@! TF.GenerationSoftware,Kicad,Pcbnew,8.0.6
; #@! TF.FileFunction,MixedPlating,1,2
FMAT,2
INCH
; #@! TA.AperFunction,Plated,PTH,ViaDrill
T1C0.0098
; #@! TA.AperFunction,Plated,PTH,ViaDrill
T2C0.0118
; #@! TA.AperFunction,Plated,PTH,ComponentDrill
T3C0.0236
; #@! TA.AperFunction,Plated,PTH,ComponentDrill
T4C0.0394
; #@! TA.AperFunction,NonPlated,NPTH,ComponentDrill
T5C0.0236
%
G90
G05
T1
X4.0748Y-4.3504
X4.0748Y-4.4685
X4.1033Y-5.1683
X4.2402Y-5.5197
X4.2917Y-4.748
X4.2917Y-4.937
X4.3307Y-4.4685
X4.3504Y-5.0197
X4.3701Y-4.6654
X4.4295Y-4.7445
X4.4295Y-4.9602
X4.4685Y-5.1575
X4.5244Y-4.7472
X4.5244Y-4.9575
X4.5866Y-5.0591
X4.5866Y-5.0984
X4.6063Y-4.7638
X4.6654Y-4.4685
X4.7047Y-4.685
X4.7047Y-4.7244
X4.7441Y-4.0945
X4.7441Y-4.7244
X4.7835Y-5.0591
X4.7835Y-5.1575
X4.815Y-5.5197
X4.8274Y-4.8228
X4.9213Y-4.8425
X4.9409Y-4.8031
X5.0Y-4.7047
X5.2165Y-4.5669
X5.2756Y-5.1969
X5.3543Y-4.5669
X5.374Y-4.7047
X5.3819Y-5.5197
X5.4335Y-4.7437
X6.1339Y-5.1693
X6.1614Y-4.8819
X6.1811Y-4.5669
X6.2008Y-4.7047
X6.2992Y-4.8002
X6.4567Y-4.5276
X6.4764Y-4.8031
X6.4764Y-5.1378
X6.5354Y-5.1575
X6.5945Y-4.9409
X6.5945Y-5.1575
X6.5945Y-5.2165
X6.6929Y-4.4882
X6.7323Y-4.1142
X6.7717Y-5.2756
X6.8004Y-4.5169
X6.9488Y-4.9746
X7.0276Y-4.0945
T2
X4.4291Y-4.4291
X5.2953Y-5.0197
X5.4331Y-4.626
X5.4724Y-4.1929
X5.5315Y-4.7244
X6.2008Y-4.9409
X6.2008Y-5.0
X6.2008Y-5.0591
X6.2795Y-4.9409
X6.2795Y-5.0
X6.2795Y-5.0591
X6.378Y-4.1929
X6.378Y-4.2323
X6.4685Y-4.8504
X6.7126Y-4.6654
X6.8701Y-4.8819
X6.9291Y-4.7638
X6.9291Y-4.9213
X6.9339Y-5.4772
X6.9685Y-4.685
X7.0339Y-5.4787
T4
X5.6299Y-4.0157
X5.6339Y-5.689
X5.7299Y-4.0157
X5.7339Y-5.689
X5.8299Y-4.0157
X5.8339Y-5.689
X5.9299Y-4.0157
X5.9339Y-5.689
X6.0299Y-4.0157
X6.0339Y-5.689
X6.1299Y-4.0157
X6.1339Y-5.689
X6.2299Y-4.0157
X6.2339Y-5.689
X6.3299Y-4.0157
X6.3339Y-5.689
X6.4299Y-4.0157
X6.4339Y-5.689
X6.5299Y-4.0157
X6.5339Y-5.689
X6.6299Y-4.0157
X6.6339Y-5.689
X6.7299Y-4.0157
X6.7339Y-5.689
X6.8299Y-4.0157
X6.8339Y-5.689
X6.9299Y-4.0157
X6.9339Y-5.689
X7.026Y-4.7746
X7.026Y-4.8746
X7.026Y-4.9746
X7.0299Y-4.0157
X7.0339Y-5.689
X7.126Y-4.7746
X7.126Y-4.8746
X7.126Y-4.9746
X7.1299Y-4.0157
X7.1339Y-5.689
T5
X4.2323Y-4.7287
X4.2323Y-4.9563
T3
G00X4.089Y-4.6724
M15
G01X4.1205Y-4.6724
M16
G05
G00X4.089Y-5.0126
M15
G01X4.1205Y-5.0126
M16
G05
G00X4.2472Y-4.6724
M15
G01X4.2906Y-4.6724
M16
G05
G00X4.2472Y-5.0126
M15
G01X4.2906Y-5.0126
M16
G05
M30
